<?xml version="1.0" encoding="UTF-8"?>
<svg id="Layer_2" data-name="Layer 2" xmlns="http://www.w3.org/2000/svg" viewBox="0 0 75.88 60.91">
  <defs>
    <style>
      .cls-1 {
        fill: #101820;
      }
    </style>
  </defs>
  <g id="Layer_1-2" data-name="Layer 1">
    <path class="cls-1" d="M75.8,30.15c-.16-.89-.61-1.64-1.38-2.28-.76-.65-1.63-.96-2.65-.96h-22.95l4.91-9.36c.8-1.57.75-3.09-.15-4.58-.9-1.48-2.22-2.22-3.95-2.22h-21.65c.8-1.57,1.48-2.88,2.05-3.95.83-1.57.8-3.09-.1-4.58-.9-1.48-2.24-2.22-4-2.22h-13.45c-.94,0-1.62.42-2.05,1.25-.07.1-.1.2-.1.3,0,.17.06.32.2.45.13.13.28.2.45.2.83,0,1.51.28,2.05.85.53.57.8,1.23.8,2,0,.47-.1.9-.3,1.3l-2.3,4.4-7.8,14.9-.4.75L.28,31.6c-.4.77-.38,1.52.07,2.27s1.11,1.13,1.98,1.13h27.1l-12.22,23.24c-.15.31-.22.62-.19.93.03.32.11.61.26.86.14.24.35.45.64.62.3.17.59.26.9.26h5.95c2.03,0,3.95-.54,5.72-1.61,1.76-1.06,3.14-2.52,4.09-4.33l1.75-3.3c.51-.99,1.37-1.51,2.49-1.51h19.5c2.5,0,4.83-.65,6.94-1.93,2.11-1.28,3.77-3.05,4.92-5.25l5.25-10c.41-.97.54-1.93.37-2.83ZM26.1,32.05c-1.32.5-2.69.75-4.12.75h-1.75c-.87,0-1.53-.37-1.98-1.1-.45-.73-.47-1.48-.07-2.25l7.55-14.4c.2-.43.48-.81.85-1.13.36-.31.77-.55,1.22-.72.45-.17.91-.25,1.38-.25h2.55c1.73,0,3.05.74,3.95,2.22.9,1.49.95,3,.15,4.53l-3.6,6.9c-.67,1.27-1.53,2.37-2.58,3.3s-2.23,1.65-3.55,2.15ZM60.17,32.23h-.01s-5.4,10.26-5.4,10.26c-.69,1.32-1.59,2.47-2.68,3.44-1.09.97-2.34,1.73-3.71,2.24-1.36.52-2.81.79-4.3.79h-1.75c-.93,0-1.69-.38-2.25-1.13-.57-.75-.71-1.58-.43-2.47l6.19-11.83c1.17-1.71,2.64-3.04,4.4-3.99,1.77-.95,3.68-1.43,5.69-1.43h1.75c1.03,0,1.86.46,2.4,1.34.55.88.58,1.82.1,2.78Z"/>
  </g>
</svg>