<?xml version="1.0" encoding="UTF-8"?>
<svg id="Layer_1" xmlns="http://www.w3.org/2000/svg" version="1.1" xmlns:serif="http://www.serif.com/" xmlns:xlink="http://www.w3.org/1999/xlink" viewBox="0 0 1920 1080">
  <!-- Generator: Adobe Illustrator 29.2.1, SVG Export Plug-In . SVG Version: 2.1.0 Build 116)  -->
  <defs>
    <style>
      .st0 {
        fill: #101b20;
        fill-rule: evenodd;
      }
    </style>
  </defs>
  <path class="st0" d="M1368.1,0c72.8,0,131.9,59.1,131.9,131.9v816.1c0,72.8-59.1,131.9-131.9,131.9h-816.1c-72.8,0-131.9-59.1-131.9-131.9V131.9C420,59.1,479.1,0,551.9,0h816.1ZM758.5,892.9v-476.1h-158.3v476.1h158.3ZM1329.1,892.9v-273c0-146.2-78.1-214.3-182.2-214.3s-121.6,46.2-142.6,78.6v-67.4h-158.2c2.1,44.7,0,476.1,0,476.1h158.2v-265.9c0-14.2,1-28.5,5.2-38.6,11.4-28.4,37.5-57.9,81.2-57.9s80.2,43.7,80.2,107.7v254.7h158.3ZM680.4,187.1c-54.2,0-89.5,35.6-89.5,82.3s34.3,82.3,87.4,82.3h1c55.2,0,89.5-36.6,89.5-82.3-1-46.6-34.3-82.2-88.5-82.3h0Z"/>
</svg>