<?xml version="1.0" encoding="UTF-8"?>
<svg id="Layer_1" xmlns="http://www.w3.org/2000/svg" version="1.1" xmlns:xlink="http://www.w3.org/1999/xlink" viewBox="0 0 24 24">
  <!-- Generator: Adobe Illustrator 29.2.1, SVG Export Plug-In . SVG Version: 2.1.0 Build 116)  -->
  <defs>
    <style>
      .st0 {
        fill: #101b20;
      }
    </style>
  </defs>
  <g id="icons">
    <path id="email" class="st0" d="M20,3H4C1.8,3,0,4.8,0,7v10c0,2.2,1.8,4,4,4h16c2.2,0,4-1.8,4-4V7c0-2.2-1.8-4-4-4ZM21.6,8.8l-7.9,5.3c-.5.3-1.1.5-1.7.5s-1.2-.2-1.7-.5l-7.9-5.3c-.4-.3-.5-.9-.2-1.4.3-.4.9-.5,1.4-.2l7.9,5.3c.3.2.8.2,1.1,0l7.9-5.3c.5-.3,1.1-.2,1.4.3.2.4.1,1-.3,1.3Z"/>
  </g>
</svg>